<mxfile host="app.diagrams.net" modified="2024-05-17T17:05:10.323Z" agent="Mozilla/5.0 (Windows NT 10.0; Win64; x64; rv:126.0) Gecko/20100101 Firefox/126.0" etag="n8N4COxVxSJ_Ql0n7h5e" version="24.4.4" type="device">
  <diagram name="Page-1" id="HqvDpQdU1ir6_2IFUhJ9">
    <mxGraphModel dx="799" dy="467" grid="1" gridSize="10" guides="1" tooltips="1" connect="1" arrows="1" fold="1" page="1" pageScale="1" pageWidth="827" pageHeight="1169" math="0" shadow="0">
      <root>
        <mxCell id="0" />
        <mxCell id="1" parent="0" />
        <mxCell id="L44XlMVKgie9fulfK0dv-20" value="" style="rounded=0;whiteSpace=wrap;html=1;" vertex="1" parent="1">
          <mxGeometry x="480" y="410" width="470" height="280" as="geometry" />
        </mxCell>
        <mxCell id="L44XlMVKgie9fulfK0dv-11" style="edgeStyle=orthogonalEdgeStyle;rounded=0;orthogonalLoop=1;jettySize=auto;html=1;entryX=0.5;entryY=0;entryDx=0;entryDy=0;startArrow=classic;startFill=1;" edge="1" parent="1" source="L44XlMVKgie9fulfK0dv-8" target="L44XlMVKgie9fulfK0dv-2">
          <mxGeometry relative="1" as="geometry" />
        </mxCell>
        <mxCell id="L44XlMVKgie9fulfK0dv-67" style="edgeStyle=orthogonalEdgeStyle;rounded=0;orthogonalLoop=1;jettySize=auto;html=1;exitX=0;exitY=1;exitDx=0;exitDy=0;startArrow=classic;startFill=1;" edge="1" parent="1" source="L44XlMVKgie9fulfK0dv-2" target="L44XlMVKgie9fulfK0dv-22">
          <mxGeometry relative="1" as="geometry">
            <Array as="points">
              <mxPoint x="581" y="390" />
              <mxPoint x="610" y="390" />
            </Array>
          </mxGeometry>
        </mxCell>
        <mxCell id="L44XlMVKgie9fulfK0dv-2" value="" style="image;aspect=fixed;perimeter=ellipsePerimeter;html=1;align=center;shadow=0;dashed=0;spacingTop=3;image=img/lib/active_directory/internet_cloud.svg;" vertex="1" parent="1">
          <mxGeometry x="560" y="230" width="142.86" height="90" as="geometry" />
        </mxCell>
        <mxCell id="L44XlMVKgie9fulfK0dv-3" value="Internet&lt;br&gt;&lt;br&gt;DDNS" style="text;html=1;align=center;verticalAlign=middle;whiteSpace=wrap;rounded=0;" vertex="1" parent="1">
          <mxGeometry x="601.4300000000001" y="270" width="60" height="30" as="geometry" />
        </mxCell>
        <mxCell id="L44XlMVKgie9fulfK0dv-18" style="edgeStyle=orthogonalEdgeStyle;rounded=0;orthogonalLoop=1;jettySize=auto;html=1;startArrow=classic;startFill=1;" edge="1" parent="1" source="L44XlMVKgie9fulfK0dv-4" target="L44XlMVKgie9fulfK0dv-17">
          <mxGeometry relative="1" as="geometry" />
        </mxCell>
        <mxCell id="L44XlMVKgie9fulfK0dv-4" value="&lt;div&gt;Router&lt;/div&gt;" style="image;html=1;image=img/lib/clip_art/networking/Wireless_Router_128x128.png" vertex="1" parent="1">
          <mxGeometry x="310" y="235" width="80" height="80" as="geometry" />
        </mxCell>
        <mxCell id="L44XlMVKgie9fulfK0dv-5" value="" style="endArrow=classic;startArrow=classic;html=1;rounded=0;exitX=1;exitY=0.5;exitDx=0;exitDy=0;entryX=0;entryY=0.5;entryDx=0;entryDy=0;" edge="1" parent="1" source="L44XlMVKgie9fulfK0dv-4" target="L44XlMVKgie9fulfK0dv-2">
          <mxGeometry width="50" height="50" relative="1" as="geometry">
            <mxPoint x="390" y="280" as="sourcePoint" />
            <mxPoint x="440" y="230" as="targetPoint" />
          </mxGeometry>
        </mxCell>
        <mxCell id="L44XlMVKgie9fulfK0dv-12" value="" style="group" vertex="1" connectable="0" parent="1">
          <mxGeometry x="530" y="30" width="176.43" height="100" as="geometry" />
        </mxCell>
        <mxCell id="L44XlMVKgie9fulfK0dv-8" value="" style="rounded=0;whiteSpace=wrap;html=1;" vertex="1" parent="L44XlMVKgie9fulfK0dv-12">
          <mxGeometry width="176.43" height="100" as="geometry" />
        </mxCell>
        <mxCell id="L44XlMVKgie9fulfK0dv-6" value="" style="image;aspect=fixed;perimeter=ellipsePerimeter;html=1;align=center;shadow=0;dashed=0;spacingTop=3;image=img/lib/active_directory/laptop_client.svg;" vertex="1" parent="L44XlMVKgie9fulfK0dv-12">
          <mxGeometry x="11.762" y="13" width="63" height="70" as="geometry" />
        </mxCell>
        <mxCell id="L44XlMVKgie9fulfK0dv-7" value="" style="outlineConnect=0;dashed=0;verticalLabelPosition=bottom;verticalAlign=top;align=center;html=1;shape=mxgraph.aws3.mobile_client;fillColor=#1ba1e2;strokeColor=#006EAF;fontColor=#ffffff;" vertex="1" parent="L44XlMVKgie9fulfK0dv-12">
          <mxGeometry x="105.85800000000002" y="20" width="47.636100000000006" height="63" as="geometry" />
        </mxCell>
        <mxCell id="L44XlMVKgie9fulfK0dv-13" value="Encrypted&lt;br&gt;&lt;span style=&quot;white-space: pre;&quot;&gt;Wireguard&lt;/span&gt;&lt;div style=&quot;white-space: pre;&quot;&gt;&lt;span style=&quot;&quot;&gt;51820/udp&lt;/span&gt;&lt;/div&gt;with DDNS URL" style="text;html=1;align=center;verticalAlign=middle;whiteSpace=wrap;rounded=0;fontColor=default;labelBackgroundColor=default;labelBorderColor=none;textShadow=0;" vertex="1" parent="1">
          <mxGeometry x="640" y="138" width="90" height="60" as="geometry" />
        </mxCell>
        <mxCell id="L44XlMVKgie9fulfK0dv-15" value="Exposed port&lt;br&gt;&lt;span style=&quot;white-space: pre;&quot;&gt;Wireguard&lt;/span&gt;&lt;div style=&quot;white-space: pre;&quot;&gt;&lt;span style=&quot;&quot;&gt;51820/udp&lt;/span&gt;&lt;/div&gt;&lt;br&gt;DDNS Setup" style="text;html=1;align=center;verticalAlign=middle;whiteSpace=wrap;rounded=0;fontColor=default;labelBackgroundColor=default;labelBorderColor=none;textShadow=0;" vertex="1" parent="1">
          <mxGeometry x="394" y="274" width="90" height="80" as="geometry" />
        </mxCell>
        <mxCell id="L44XlMVKgie9fulfK0dv-27" style="edgeStyle=orthogonalEdgeStyle;rounded=0;orthogonalLoop=1;jettySize=auto;html=1;startArrow=classic;startFill=1;" edge="1" parent="1" source="L44XlMVKgie9fulfK0dv-17" target="L44XlMVKgie9fulfK0dv-23">
          <mxGeometry relative="1" as="geometry">
            <Array as="points">
              <mxPoint x="350" y="607" />
            </Array>
          </mxGeometry>
        </mxCell>
        <mxCell id="L44XlMVKgie9fulfK0dv-59" style="edgeStyle=orthogonalEdgeStyle;rounded=0;orthogonalLoop=1;jettySize=auto;html=1;exitX=1;exitY=0.75;exitDx=0;exitDy=0;" edge="1" parent="1" source="L44XlMVKgie9fulfK0dv-17" target="L44XlMVKgie9fulfK0dv-22">
          <mxGeometry relative="1" as="geometry" />
        </mxCell>
        <mxCell id="L44XlMVKgie9fulfK0dv-17" value="" style="shape=image;html=1;verticalAlign=top;verticalLabelPosition=bottom;labelBackgroundColor=#ffffff;imageAspect=0;aspect=fixed;image=https://cdn1.iconfinder.com/data/icons/fruit-136/64/Fruit_iconfree_Filled_Outline_raspberry-healthy-organic-food-fruit_icon-128.png" vertex="1" parent="1">
          <mxGeometry x="306" y="460" width="88" height="88" as="geometry" />
        </mxCell>
        <mxCell id="L44XlMVKgie9fulfK0dv-19" value="Exposed ports&lt;br&gt;&lt;span style=&quot;white-space: pre;&quot;&gt;&lt;/span&gt;&lt;div style=&quot;white-space: pre;&quot;&gt;&lt;span style=&quot;&quot;&gt;22 (SSH)&lt;br&gt;51820 (Wireguard)&lt;br&gt;&lt;/span&gt;&lt;/div&gt;80 (http)&lt;br&gt;443 (https)" style="text;html=1;align=right;verticalAlign=middle;whiteSpace=wrap;rounded=0;fontColor=default;labelBackgroundColor=default;labelBorderColor=none;textShadow=0;" vertex="1" parent="1">
          <mxGeometry x="240" y="374" width="104" height="76" as="geometry" />
        </mxCell>
        <mxCell id="L44XlMVKgie9fulfK0dv-21" value="" style="image;sketch=0;aspect=fixed;html=1;points=[];align=center;fontSize=12;image=img/lib/mscae/Docker.svg;" vertex="1" parent="1">
          <mxGeometry x="890" y="640" width="50" height="41" as="geometry" />
        </mxCell>
        <mxCell id="L44XlMVKgie9fulfK0dv-37" style="edgeStyle=orthogonalEdgeStyle;rounded=0;orthogonalLoop=1;jettySize=auto;html=1;startArrow=classic;startFill=1;endArrow=none;endFill=0;" edge="1" parent="1" source="L44XlMVKgie9fulfK0dv-22" target="L44XlMVKgie9fulfK0dv-23">
          <mxGeometry relative="1" as="geometry">
            <Array as="points">
              <mxPoint x="590" y="590" />
            </Array>
          </mxGeometry>
        </mxCell>
        <mxCell id="L44XlMVKgie9fulfK0dv-22" value="wg-easy" style="sketch=0;pointerEvents=1;shadow=0;dashed=0;html=1;strokeColor=none;fillColor=#DF8C42;labelPosition=left;verticalLabelPosition=bottom;verticalAlign=top;align=right;outlineConnect=0;shape=mxgraph.veeam2.wireguard;" vertex="1" parent="1">
          <mxGeometry x="576" y="489" width="34" height="34" as="geometry" />
        </mxCell>
        <mxCell id="L44XlMVKgie9fulfK0dv-23" value="Caddy" style="sketch=0;pointerEvents=1;shadow=0;dashed=0;html=1;strokeColor=none;fillColor=#505050;labelPosition=left;verticalLabelPosition=bottom;verticalAlign=top;outlineConnect=0;align=right;shape=mxgraph.office.servers.reverse_proxy;perimeterSpacing=0;strokeWidth=1;gradientColor=none;labelBorderColor=none;" vertex="1" parent="1">
          <mxGeometry x="518.5" y="579" width="41" height="53" as="geometry" />
        </mxCell>
        <mxCell id="L44XlMVKgie9fulfK0dv-29" value="Port mapping&lt;br&gt;80:80&lt;br&gt;443:443&lt;br&gt;443:443/udp" style="text;html=1;align=center;verticalAlign=middle;whiteSpace=wrap;rounded=0;" vertex="1" parent="1">
          <mxGeometry x="340" y="610" width="90" height="60" as="geometry" />
        </mxCell>
        <mxCell id="L44XlMVKgie9fulfK0dv-30" value="Port mapping&lt;br&gt;51820:51820/udp" style="text;html=1;align=center;verticalAlign=middle;whiteSpace=wrap;rounded=0;" vertex="1" parent="1">
          <mxGeometry x="362" y="511" width="110" height="60" as="geometry" />
        </mxCell>
        <mxCell id="L44XlMVKgie9fulfK0dv-31" value="Watchtower" style="shape=image;html=1;verticalAlign=bottom;verticalLabelPosition=top;labelBackgroundColor=#ffffff;imageAspect=0;aspect=fixed;image=https://cdn0.iconfinder.com/data/icons/maternity-and-pregnancy-2/512/91_Observatory_Tower_Watchtower-128.png;labelPosition=center;align=center;" vertex="1" parent="1">
          <mxGeometry x="886" y="521" width="58" height="58" as="geometry" />
        </mxCell>
        <mxCell id="L44XlMVKgie9fulfK0dv-32" style="edgeStyle=orthogonalEdgeStyle;rounded=0;orthogonalLoop=1;jettySize=auto;html=1;entryX=0.5;entryY=-0.098;entryDx=0;entryDy=0;entryPerimeter=0;" edge="1" parent="1" source="L44XlMVKgie9fulfK0dv-31" target="L44XlMVKgie9fulfK0dv-21">
          <mxGeometry relative="1" as="geometry" />
        </mxCell>
        <mxCell id="L44XlMVKgie9fulfK0dv-40" style="edgeStyle=orthogonalEdgeStyle;rounded=0;orthogonalLoop=1;jettySize=auto;html=1;" edge="1" parent="1" source="L44XlMVKgie9fulfK0dv-33" target="L44XlMVKgie9fulfK0dv-34">
          <mxGeometry relative="1" as="geometry" />
        </mxCell>
        <mxCell id="L44XlMVKgie9fulfK0dv-42" style="edgeStyle=orthogonalEdgeStyle;rounded=0;orthogonalLoop=1;jettySize=auto;html=1;endArrow=none;endFill=0;startArrow=classic;startFill=1;" edge="1" parent="1" source="L44XlMVKgie9fulfK0dv-33" target="L44XlMVKgie9fulfK0dv-23">
          <mxGeometry relative="1" as="geometry">
            <Array as="points">
              <mxPoint x="664" y="606" />
            </Array>
          </mxGeometry>
        </mxCell>
        <mxCell id="L44XlMVKgie9fulfK0dv-33" value="Pihole" style="sketch=0;points=[[0.015,0.015,0],[0.985,0.015,0],[0.985,0.985,0],[0.015,0.985,0],[0.25,0,0],[0.5,0,0],[0.75,0,0],[1,0.25,0],[1,0.5,0],[1,0.75,0],[0.75,1,0],[0.5,1,0],[0.25,1,0],[0,0.75,0],[0,0.5,0],[0,0.25,0]];verticalLabelPosition=top;html=1;verticalAlign=bottom;aspect=fixed;align=center;pointerEvents=1;shape=mxgraph.cisco19.dns_server;fillColor=#005073;strokeColor=none;labelPosition=center;" vertex="1" parent="1">
          <mxGeometry x="650" y="428" width="27.500000000000004" height="50" as="geometry" />
        </mxCell>
        <mxCell id="L44XlMVKgie9fulfK0dv-49" style="edgeStyle=orthogonalEdgeStyle;rounded=0;orthogonalLoop=1;jettySize=auto;html=1;entryX=1;entryY=0.5;entryDx=0;entryDy=0;" edge="1" parent="1" source="L44XlMVKgie9fulfK0dv-34" target="L44XlMVKgie9fulfK0dv-2">
          <mxGeometry relative="1" as="geometry">
            <Array as="points">
              <mxPoint x="838" y="275" />
            </Array>
          </mxGeometry>
        </mxCell>
        <mxCell id="L44XlMVKgie9fulfK0dv-34" value="Cloudflared&lt;br&gt;&lt;div align=&quot;center&quot;&gt;DNS&lt;/div&gt;" style="image;sketch=0;aspect=fixed;html=1;points=[];align=left;fontSize=12;image=img/lib/mscae/DNS.svg;labelPosition=right;verticalLabelPosition=middle;verticalAlign=middle;" vertex="1" parent="1">
          <mxGeometry x="812.5" y="428" width="50" height="50" as="geometry" />
        </mxCell>
        <mxCell id="L44XlMVKgie9fulfK0dv-35" value="&lt;font style=&quot;font-size: 10px;&quot;&gt;IMMICH&lt;/font&gt;" style="html=1;whiteSpace=wrap;strokeColor=none;fillColor=#0079D6;labelPosition=center;verticalLabelPosition=middle;verticalAlign=top;align=center;fontSize=12;outlineConnect=0;spacingTop=-6;fontColor=#FFFFFF;sketch=0;shape=mxgraph.sitemap.photo;spacing=0;" vertex="1" parent="1">
          <mxGeometry x="677.5" y="631" width="75" height="48" as="geometry" />
        </mxCell>
        <mxCell id="L44XlMVKgie9fulfK0dv-36" value="All immich&lt;br&gt;containers" style="text;html=1;align=center;verticalAlign=middle;whiteSpace=wrap;rounded=0;" vertex="1" parent="1">
          <mxGeometry x="752.5" y="640" width="60" height="30" as="geometry" />
        </mxCell>
        <mxCell id="L44XlMVKgie9fulfK0dv-39" style="edgeStyle=orthogonalEdgeStyle;rounded=0;orthogonalLoop=1;jettySize=auto;html=1;entryX=0;entryY=0.5;entryDx=0;entryDy=0;entryPerimeter=0;startArrow=none;startFill=0;" edge="1" parent="1" source="L44XlMVKgie9fulfK0dv-22" target="L44XlMVKgie9fulfK0dv-33">
          <mxGeometry relative="1" as="geometry" />
        </mxCell>
        <mxCell id="L44XlMVKgie9fulfK0dv-44" value="&lt;font style=&quot;font-size: 10px;&quot;&gt;DNS&lt;br&gt;filter&lt;/font&gt;" style="text;html=1;align=center;verticalAlign=middle;whiteSpace=wrap;rounded=0;" vertex="1" parent="1">
          <mxGeometry x="609.1499999999999" y="505" width="28.57" height="30" as="geometry" />
        </mxCell>
        <mxCell id="L44XlMVKgie9fulfK0dv-46" style="edgeStyle=orthogonalEdgeStyle;rounded=0;orthogonalLoop=1;jettySize=auto;html=1;entryX=0;entryY=0.75;entryDx=0;entryDy=0;entryPerimeter=0;" edge="1" parent="1" source="L44XlMVKgie9fulfK0dv-23" target="L44XlMVKgie9fulfK0dv-35">
          <mxGeometry relative="1" as="geometry">
            <Array as="points">
              <mxPoint x="539" y="668" />
            </Array>
          </mxGeometry>
        </mxCell>
        <mxCell id="L44XlMVKgie9fulfK0dv-47" value="Web&lt;br style=&quot;font-size: 10px;&quot;&gt;Interface&lt;br style=&quot;font-size: 10px;&quot;&gt;pihole.pi.xx" style="text;html=1;align=left;verticalAlign=middle;whiteSpace=wrap;rounded=0;fontSize=10;" vertex="1" parent="1">
          <mxGeometry x="668" y="491" width="60" height="30" as="geometry" />
        </mxCell>
        <mxCell id="L44XlMVKgie9fulfK0dv-48" value="DNS&lt;br&gt;Server" style="text;html=1;align=center;verticalAlign=middle;whiteSpace=wrap;rounded=0;" vertex="1" parent="1">
          <mxGeometry x="706.43" y="420" width="60" height="30" as="geometry" />
        </mxCell>
        <mxCell id="L44XlMVKgie9fulfK0dv-50" value="1.1.1.1&lt;br&gt;DNS&lt;br&gt;over&lt;br&gt;HTTPS" style="text;html=1;align=center;verticalAlign=middle;resizable=0;points=[];autosize=1;strokeColor=none;fillColor=none;" vertex="1" parent="1">
          <mxGeometry x="785" y="300" width="60" height="70" as="geometry" />
        </mxCell>
        <mxCell id="L44XlMVKgie9fulfK0dv-51" value="Web&lt;br style=&quot;font-size: 10px;&quot;&gt;Interface&lt;br style=&quot;font-size: 10px;&quot;&gt;wg.pi.xx" style="text;html=1;align=left;verticalAlign=middle;whiteSpace=wrap;rounded=0;fontSize=10;" vertex="1" parent="1">
          <mxGeometry x="592" y="545" width="60" height="30" as="geometry" />
        </mxCell>
        <mxCell id="L44XlMVKgie9fulfK0dv-52" value="Web&lt;br&gt;Interface" style="text;html=1;align=center;verticalAlign=middle;whiteSpace=wrap;rounded=0;" vertex="1" parent="1">
          <mxGeometry x="610" y="632" width="60" height="30" as="geometry" />
        </mxCell>
        <mxCell id="L44XlMVKgie9fulfK0dv-53" style="edgeStyle=orthogonalEdgeStyle;rounded=0;orthogonalLoop=1;jettySize=auto;html=1;entryX=0.53;entryY=0.98;entryDx=0;entryDy=0;entryPerimeter=0;" edge="1" parent="1" source="L44XlMVKgie9fulfK0dv-23" target="L44XlMVKgie9fulfK0dv-34">
          <mxGeometry relative="1" as="geometry">
            <Array as="points">
              <mxPoint x="839" y="620" />
            </Array>
          </mxGeometry>
        </mxCell>
        <mxCell id="L44XlMVKgie9fulfK0dv-54" value="metrics&lt;br&gt;cloudflaredns.pi.xx" style="text;html=1;align=right;verticalAlign=middle;whiteSpace=wrap;rounded=0;" vertex="1" parent="1">
          <mxGeometry x="683" y="555" width="153.57" height="30" as="geometry" />
        </mxCell>
        <mxCell id="L44XlMVKgie9fulfK0dv-55" value="immich.pi.xx" style="text;html=1;align=center;verticalAlign=middle;whiteSpace=wrap;rounded=0;" vertex="1" parent="1">
          <mxGeometry x="608" y="662" width="60" height="30" as="geometry" />
        </mxCell>
        <mxCell id="L44XlMVKgie9fulfK0dv-56" value="" style="endArrow=classic;dashed=1;html=1;rounded=0;entryX=1;entryY=0.25;entryDx=0;entryDy=0;startArrow=classic;startFill=1;endFill=1;" edge="1" parent="1" source="L44XlMVKgie9fulfK0dv-22" target="L44XlMVKgie9fulfK0dv-61">
          <mxGeometry width="50" height="50" relative="1" as="geometry">
            <mxPoint x="590.1515957446809" y="514.5" as="sourcePoint" />
            <mxPoint x="530" y="155.5" as="targetPoint" />
          </mxGeometry>
        </mxCell>
        <mxCell id="L44XlMVKgie9fulfK0dv-58" value="&lt;div align=&quot;right&quot;&gt;VPN connection&lt;br&gt;&lt;/div&gt;" style="text;html=1;align=center;verticalAlign=middle;whiteSpace=wrap;rounded=0;" vertex="1" parent="1">
          <mxGeometry x="470" y="198" width="60" height="30" as="geometry" />
        </mxCell>
        <mxCell id="L44XlMVKgie9fulfK0dv-60" value="" style="group" vertex="1" connectable="0" parent="1">
          <mxGeometry x="490" y="420" width="40" height="30" as="geometry" />
        </mxCell>
        <mxCell id="L44XlMVKgie9fulfK0dv-61" value="" style="rounded=0;whiteSpace=wrap;html=1;" vertex="1" parent="L44XlMVKgie9fulfK0dv-60">
          <mxGeometry width="40" height="30" as="geometry" />
        </mxCell>
        <mxCell id="L44XlMVKgie9fulfK0dv-62" value="" style="image;aspect=fixed;perimeter=ellipsePerimeter;html=1;align=center;shadow=0;dashed=0;spacingTop=3;image=img/lib/active_directory/laptop_client.svg;" vertex="1" parent="L44XlMVKgie9fulfK0dv-60">
          <mxGeometry x="2.6666666666666665" y="3.9000000000000004" width="13.390579833361674" height="14.878422037068525" as="geometry" />
        </mxCell>
        <mxCell id="L44XlMVKgie9fulfK0dv-63" value="" style="outlineConnect=0;dashed=0;verticalLabelPosition=bottom;verticalAlign=top;align=center;html=1;shape=mxgraph.aws3.mobile_client;fillColor=#1ba1e2;strokeColor=#006EAF;fontColor=#ffffff;" vertex="1" parent="L44XlMVKgie9fulfK0dv-60">
          <mxGeometry x="24.000000000000004" y="6" width="10.8" height="18.900000000000002" as="geometry" />
        </mxCell>
        <mxCell id="L44XlMVKgie9fulfK0dv-64" value="&lt;p style=&quot;line-height: 100%; font-size: 10px;&quot;&gt;&lt;font style=&quot;font-size: 10px;&quot;&gt;Clients&lt;br&gt;in docker&lt;br&gt;network through wg&lt;br&gt;&lt;/font&gt;&lt;/p&gt;" style="text;html=1;align=center;verticalAlign=middle;whiteSpace=wrap;rounded=0;spacing=0;" vertex="1" parent="1">
          <mxGeometry x="542.43" y="416" width="60" height="30" as="geometry" />
        </mxCell>
        <mxCell id="L44XlMVKgie9fulfK0dv-65" value="" style="endArrow=none;dashed=1;html=1;dashPattern=1 3;strokeWidth=2;rounded=0;startArrow=classic;startFill=1;" edge="1" parent="1">
          <mxGeometry width="50" height="50" relative="1" as="geometry">
            <mxPoint x="510" y="420" as="sourcePoint" />
            <mxPoint x="550" y="130" as="targetPoint" />
          </mxGeometry>
        </mxCell>
        <mxCell id="L44XlMVKgie9fulfK0dv-68" value="Internet traffic" style="text;html=1;align=left;verticalAlign=middle;whiteSpace=wrap;rounded=0;" vertex="1" parent="1">
          <mxGeometry x="583.72" y="360" width="54" height="30" as="geometry" />
        </mxCell>
      </root>
    </mxGraphModel>
  </diagram>
</mxfile>
